<svg width="60" height="61" viewBox="0 0 60 61" fill="none" xmlns="http://www.w3.org/2000/svg">
<g id="Component 1" clip-path="url(#clip0_2001_63)">
<path id="Vector" d="M52.5 40.6015C52.59 40.4215 52.6425 40.2077 52.6425 39.9827C52.6425 39.7577 52.59 39.544 52.4962 39.3565L50.7 36.739C50.6663 36.6902 50.6475 36.634 50.6475 36.5702C50.6475 36.5065 50.6663 36.4502 50.7 36.4015L52.5 33.7765C52.59 33.5965 52.6425 33.3827 52.6425 33.1577C52.6425 32.9327 52.59 32.719 52.4962 32.5315C52.3462 32.119 52.02 31.7965 51.6112 31.6427L48.525 30.514C48.4087 30.4727 48.3225 30.3752 48.3 30.2552V27.1015C48.2738 26.6327 48.03 26.2277 47.6663 25.9802C47.4188 25.8115 47.1225 25.714 46.8 25.714C46.785 25.714 46.7738 25.714 46.7587 25.714H46.1625L42.975 26.539C42.9375 26.554 42.8925 26.5652 42.8438 26.5652C42.795 26.5652 42.75 26.554 42.7087 26.539L40.65 24.1015C40.3538 23.7827 39.9337 23.5877 39.4687 23.5877C39.0037 23.5877 38.5837 23.7865 38.2875 24.1015L36.225 26.539C36.1875 26.554 36.1425 26.5652 36.0937 26.5652C36.045 26.5652 36 26.554 35.9587 26.539H35.9625L32.5875 25.6765H32.2125C32.205 25.6765 32.1937 25.6765 32.1825 25.6765C31.8562 25.6765 31.5562 25.774 31.305 25.9427C30.945 26.1902 30.7013 26.5952 30.675 27.0602V30.214C30.6525 30.3377 30.5662 30.4352 30.4538 30.4765L27.375 31.6015C26.8725 31.6877 26.4562 32.014 26.2537 32.4565C26.16 32.6477 26.1075 32.8577 26.1075 33.0827C26.1075 33.3077 26.16 33.5215 26.2537 33.709L28.05 36.3265C28.0837 36.3752 28.1025 36.4315 28.1025 36.4952C28.1025 36.559 28.0837 36.6152 28.05 36.664L26.25 39.289C26.16 39.469 26.1075 39.6827 26.1075 39.9077C26.1075 40.1327 26.16 40.3465 26.2537 40.534C26.4037 40.9465 26.73 41.269 27.1387 41.4227L30.225 42.5515C30.3413 42.5927 30.4275 42.6902 30.45 42.8102V45.964C30.4762 46.4327 30.72 46.8377 31.0837 47.0852C31.335 47.254 31.635 47.3515 31.9612 47.3515C31.9725 47.3515 31.98 47.3515 31.9912 47.3515H32.5912L33.7538 47.089V60.9265L39.4913 53.4265L45.0038 60.9265V47.089L46.1663 47.389H46.5787C46.5862 47.389 46.5975 47.389 46.6087 47.389C46.935 47.389 47.235 47.2915 47.4862 47.1227C47.8463 46.8752 48.09 46.4702 48.1163 46.0052V42.8515C48.1388 42.7277 48.225 42.6302 48.3375 42.589L51.4163 41.464C51.9038 41.3665 52.3013 41.044 52.5 40.6127V40.6015Z" fill="white"/>
<path id="Vector_2" d="M0 4.67645V49.6765H30L29.5875 49.489C28.53 48.7577 27.8288 47.584 27.75 46.2377V45.9265H3.75V8.42645H56.25V45.9265H50.8875V46.2265C50.8088 47.5802 50.1075 48.7577 49.065 49.4815L48.75 49.6765H60V4.67645H0Z" fill="white"/>
<path id="Vector_3" d="M27.8625 26.8389C27.8888 25.4252 28.605 24.1839 29.685 23.4339C29.745 23.4152 29.7975 23.4114 29.85 23.4114C29.9025 23.4114 29.955 23.4152 30.0038 23.4264H11.25V27.1764H27.8625V26.8389Z" fill="white"/>
<path id="Vector_4" d="M24.075 30.9265H11.25V34.6765H23.85C23.5725 34.1665 23.4113 33.559 23.4113 32.914C23.4113 32.4265 23.505 31.9652 23.6738 31.5377C23.7263 31.3015 23.8763 31.0802 24.075 30.9265Z" fill="white"/>
<path id="Vector_5" d="M11.25 15.9265H48.75V19.6765H11.25V15.9265Z" fill="white"/>
</g>
<defs>
<clipPath id="clip0_2001_63">
<rect width="60" height="60" fill="white" transform="translate(0 0.926453)"/>
</clipPath>
</defs>
</svg>
