<svg width="60" height="61" viewBox="0 0 60 61" fill="none" xmlns="http://www.w3.org/2000/svg">
<g clip-path="url(#clip0_2001_148)">
<path d="M36.7572 32.0812C36.7382 32.1213 36.717 32.1602 36.6976 32.2001C36.6691 32.2584 36.6397 32.3164 36.6102 32.3744C36.5614 32.47 36.5115 32.5649 36.4602 32.6591C36.4254 32.7231 36.3898 32.7869 36.3539 32.8502C36.3165 32.9158 36.2789 32.9813 36.2402 33.0463C36.1861 33.1374 36.1304 33.2277 36.0736 33.3176C36.043 33.366 36.012 33.4143 35.9807 33.4625C35.9127 33.5668 35.8429 33.6704 35.7712 33.773C35.7453 33.8099 35.7188 33.8464 35.6927 33.883C35.6234 33.9798 35.5525 34.0759 35.4799 34.171C35.4625 34.1936 35.4457 34.2167 35.4281 34.2392C35.3429 34.3492 35.2546 34.4575 35.1651 34.5651C35.1426 34.5921 35.1201 34.6193 35.0974 34.6462C35.0054 34.7546 34.9113 34.8616 34.8148 34.9671C34.794 34.99 34.7728 35.0127 34.7516 35.0355C34.6511 35.1437 34.5491 35.2511 34.4439 35.3563C34.4417 35.3586 34.4396 35.3611 34.4372 35.3634L34.437 35.3635C34.4348 35.3657 34.4322 35.3678 34.43 35.3703C34.3247 35.4755 34.2172 35.5776 34.1089 35.6781C34.0863 35.6991 34.0637 35.7203 34.0409 35.7412C33.9351 35.8377 33.8279 35.9319 33.7195 36.0241C33.6929 36.0466 33.6661 36.0688 33.6392 36.0911C33.5308 36.1814 33.4218 36.2702 33.311 36.3559C33.2894 36.3727 33.2674 36.3887 33.2458 36.4053C33.1502 36.4784 33.0535 36.5495 32.9561 36.6193C32.9198 36.6454 32.8836 36.6718 32.8469 36.6973C32.7441 36.7693 32.6403 36.839 32.5358 36.9073C32.488 36.9385 32.4399 36.9693 32.3918 36.9998C32.3014 37.0568 32.2107 37.1128 32.1192 37.1672C32.0547 37.2055 31.9897 37.2428 31.9244 37.28C31.8607 37.3162 31.7967 37.3518 31.7325 37.3867C31.6386 37.4378 31.5439 37.4876 31.4488 37.5362C31.3906 37.5659 31.3325 37.5953 31.2739 37.6239C31.2341 37.6434 31.195 37.6646 31.155 37.6835L38.4816 45.0101L40.1937 41.1198L44.084 39.4075L36.7572 32.0812Z" fill="white"/>
<path d="M23.5435 38.554C23.5224 38.5495 23.5013 38.5445 23.4802 38.5397C23.4109 38.5241 23.3412 38.5086 23.2722 38.4917C23.2127 38.4773 23.1534 38.4619 23.094 38.4466C23.0612 38.438 23.0282 38.4302 22.9955 38.4214C21.457 38.0105 19.9862 37.2845 18.685 36.2447C18.6843 36.2441 18.6835 36.2436 18.6828 36.243C18.6038 36.1798 18.5254 36.1154 18.4477 36.0499C18.4388 36.0424 18.4298 36.0349 18.4208 36.0274C18.3516 35.9688 18.2831 35.909 18.2151 35.8486C18.2001 35.8354 18.185 35.8223 18.17 35.809C18.1064 35.7521 18.0434 35.694 17.9809 35.6351C17.9639 35.6192 17.9467 35.6038 17.9297 35.5878C17.852 35.5142 17.7749 35.4394 17.6987 35.3633C17.5852 35.2498 17.4751 35.1339 17.3668 35.0168C17.3529 35.0017 17.3388 34.9871 17.325 34.9718C17.22 34.8571 17.1179 34.7403 17.0178 34.6222C17.0054 34.6073 16.9927 34.5926 16.9804 34.5776C16.876 34.4529 16.7742 34.3264 16.6753 34.1979C16.6748 34.1974 16.6743 34.1968 16.674 34.1962C16.5696 34.0604 16.4677 33.9231 16.3695 33.7836L0.00012207 50.1531L6.42245 56.5754L24.3032 38.6947C24.0482 38.6562 23.795 38.6089 23.5435 38.554Z" fill="white"/>
<path d="M28.2335 39.7989L8.93964 59.0927L10.7731 60.9262L30.067 41.6324L28.2335 39.7989Z" fill="white"/>
<path d="M49.2267 0.926453L32.8574 17.296C32.9969 17.394 33.1341 17.4957 33.2696 17.6002C33.2704 17.6008 33.2712 17.6015 33.272 17.6021C33.4003 17.701 33.5267 17.8025 33.6514 17.907C33.6662 17.9194 33.681 17.932 33.6959 17.9445C33.814 18.0445 33.9306 18.1465 34.0452 18.2513C34.0606 18.2654 34.0756 18.2797 34.0909 18.2937C34.208 18.4019 34.3237 18.5118 34.4369 18.6251C34.513 18.7013 34.5878 18.7784 34.6615 18.8562C34.677 18.8725 34.6919 18.8892 34.7072 18.9054C34.7666 18.9688 34.8256 19.0327 34.8834 19.097C34.8957 19.1108 34.9078 19.1249 34.92 19.1386C34.9816 19.2079 35.0423 19.2776 35.1018 19.3479C35.1085 19.3558 35.1149 19.3639 35.1216 19.3717C36.3374 20.8137 37.1541 22.4798 37.5709 24.2231C37.5791 24.2572 37.5868 24.2911 37.5946 24.3252C37.6078 24.3834 37.6212 24.4414 37.6336 24.4997C37.6464 24.5593 37.6586 24.619 37.6705 24.6788C37.6765 24.7087 37.6824 24.7386 37.6881 24.7686C37.7032 24.8474 37.7174 24.9265 37.731 25.0056C37.7318 25.0107 37.7326 25.0157 37.7335 25.0207C37.7452 25.0904 37.7571 25.1601 37.7677 25.2298L55.6491 7.34878L49.2267 0.926453Z" fill="white"/>
<path d="M58.1659 9.86521L38.8721 29.1591L40.7056 30.9926L59.9994 11.6987L58.1659 9.86521Z" fill="white"/>
<path d="M31.9195 21.1425C30.3564 19.5795 28.2782 18.7186 26.0677 18.7186C23.8572 18.7186 21.7791 19.5794 20.2161 21.1425C18.653 22.7055 17.7922 24.7837 17.7922 26.9942C17.7922 29.2047 18.6529 31.2826 20.2161 32.8458C21.8292 34.4589 23.9487 35.2655 26.0677 35.2657C28.187 35.2658 30.3059 34.4592 31.9195 32.8458C35.1461 29.6192 35.1461 24.369 31.9195 21.1425ZM29.2041 30.1304C27.472 31.8626 24.6637 31.8626 22.9315 30.1304C21.1994 28.3982 21.1994 25.59 22.9315 23.8579C24.6637 22.1257 27.472 22.1257 29.2041 23.8579C30.9363 25.59 30.9361 28.3983 29.2041 30.1304Z" fill="white"/>
</g>
<defs>
<clipPath id="clip0_2001_148">
<rect width="60" height="60" fill="white" transform="translate(0 0.926453)"/>
</clipPath>
</defs>
</svg>
