<svg width="58" height="61" viewBox="0 0 58 61" fill="none" xmlns="http://www.w3.org/2000/svg">
<g id="Group">
<path id="Vector" d="M38.4883 4.19704C38.4883 2.38942 37.0255 0.926453 35.2177 0.926453H22.7821C20.9756 0.926453 19.5105 2.38942 19.5105 4.19704V12.4657H38.4883V4.19704Z" fill="white"/>
<path id="Vector_2" d="M29.0005 27.5449C34.52 27.5449 39.0704 23.4309 39.7733 18.1081H36.4543L39.6578 13.8379L38.7352 13.1454L35.0122 18.1081H22.9899L19.2681 13.1454L18.3444 13.8379L21.5474 18.1081H18.2279C18.9295 23.4309 23.4807 27.5449 29.0005 27.5449Z" fill="white"/>
<path id="Vector_3" d="M16.6148 42.6014V25.2052C16.6148 24.6148 16.1348 24.1359 15.5454 24.1359C14.955 24.1359 14.4771 24.6148 14.4771 25.2052V30.4855C14.2615 30.4324 14.0304 30.3823 13.7878 30.3324V23.6934C13.7878 23.103 13.3078 22.6251 12.7195 22.6251C12.129 22.6251 11.6501 23.103 11.6501 23.6934V29.8878C11.4199 29.8378 11.1899 29.7898 10.9618 29.7451V23.3081C10.9618 22.7198 10.4829 22.2398 9.8945 22.2398C9.30212 22.2398 8.82516 22.7198 8.82516 23.3081V29.4848C8.58258 29.4848 8.35665 29.5056 8.13692 29.5409V25.227C8.13692 24.6377 7.65692 24.1597 7.06758 24.1597C6.47719 24.1597 5.99919 24.6377 5.99919 25.227C5.99919 25.227 5.99192 32.6532 5.99508 32.8177C5.87227 33.8506 4.01157 31.7608 2.37985 31.3173C0.652506 30.8457 0.215045 32.4877 1.90922 33.8299C4.77165 36.1009 6.0252 38.8133 6.0252 40.698V42.6014H16.6148Z" fill="white"/>
<path id="Vector_4" d="M55.6211 31.3174C53.9916 31.7609 52.1276 33.8507 52.0058 32.8179C52.0089 32.6533 52.0027 25.2272 52.0027 25.2272C52.0027 24.6378 51.5237 24.1598 50.9333 24.1598C50.344 24.1598 49.866 24.6378 49.866 25.2272V29.5411C49.6464 29.5057 49.4161 29.4849 49.1758 29.4849V23.3081C49.1758 22.7198 48.6988 22.2398 48.1084 22.2398C47.518 22.2398 47.04 22.7198 47.04 23.3081V29.7451C46.811 29.7898 46.5829 29.8378 46.3507 29.8878V23.6934C46.3507 23.103 45.8708 22.6251 45.2824 22.6251C44.691 22.6251 44.2131 23.103 44.2131 23.6934V30.3324C43.9704 30.3825 43.7383 30.4324 43.5238 30.4855V25.2052C43.5238 24.6148 43.0458 24.1359 42.4555 24.1359C41.8651 24.1359 41.3882 24.6148 41.3882 25.2052V42.6014H51.9756V40.698C51.9756 38.8133 53.2314 36.101 56.0917 33.8299C57.7838 32.4879 57.3485 30.8458 55.6211 31.3174Z" fill="white"/>
<path id="Vector_5" d="M41.3902 46.199H39.8553V33.9382C39.8553 33.3708 39.088 32.6949 38.5206 32.6949H35.5426L29.0005 39.2361L22.4583 32.6949H19.4803C18.9325 32.6949 18.1454 33.3708 18.1454 33.9382V46.199H16.6107V43.878H6.03149L6.08669 48.7563V54.6769C6.08669 56.2294 7.42146 58.1682 8.79185 58.8793C10.162 59.6114 13.1578 60.4339 16.5752 57.5465V60.9265H41.4256V57.5465C44.8431 60.434 47.8387 59.6114 49.2101 58.8793C50.5803 58.1682 51.9152 56.2294 51.9152 54.6769V48.7563L51.9705 43.878H41.3902V46.199Z" fill="white"/>
</g>
</svg>
